<svg width="81" height="81" viewBox="0 0 81 81" fill="none" xmlns="http://www.w3.org/2000/svg">
<path d="M66.1358 47.3625C62.8592 47.3625 59.5686 47.475 56.3061 47.3485C41.3717 46.7157 26.4373 46.0266 11.517 45.2953C9.84359 45.211 8.18422 44.9016 6.5389 44.55C5.31547 44.2969 4.2889 43.636 4.41547 42.1594C4.54203 40.6969 5.6389 40.1485 6.89047 40.1485C12.1498 40.1766 17.4092 40.1766 22.6686 40.4016C34.7483 40.9219 46.828 41.5547 59.0202 41.8782C58.528 41.6532 58.0358 41.4141 57.5295 41.2032C54.5905 39.9797 51.6373 38.7703 48.6983 37.5328C48.192 37.3219 47.6717 37.0266 47.2498 36.7032C46.4061 36.0703 46.392 35.536 46.4905 35.0578C46.6311 34.3125 47.2077 34.1578 48.0373 34.2C48.5577 34.2282 49.1623 34.2 49.6827 34.3688C56.7842 36.7453 63.8717 39.136 70.9452 41.5828C71.8311 41.8922 72.703 42.3703 73.4342 42.9469C75.2764 44.3953 74.8967 46.9125 72.7592 47.8266C66.6983 50.4 60.6373 52.9594 54.5764 55.5188C54.1686 55.6875 53.9858 55.786 53.3108 55.8985C52.7202 55.9969 52.003 55.4625 51.7498 54.9985C51.553 54.6328 51.778 53.7188 52.1295 53.4235C52.7905 52.875 53.6623 52.5235 54.492 52.2141C57.9936 50.8922 61.5092 49.6125 65.0248 48.3188C65.4186 48.1782 65.7983 47.9813 66.192 47.8266C66.6561 47.5735 66.9514 47.4469 66.1358 47.3625Z" fill="black"/>
</svg>
