<svg width="223" height="90" viewBox="0 0 223 90" fill="none" xmlns="http://www.w3.org/2000/svg">
<path d="M117.528 65V35.9091H123.679V47.9119H136.165V35.9091H142.301V65H136.165V52.983H123.679V65H117.528ZM156.236 65.4261C154.03 65.4261 152.122 64.9574 150.512 64.0199C148.912 63.0729 147.676 61.7566 146.805 60.071C145.933 58.3759 145.498 56.411 145.498 54.1761C145.498 51.9223 145.933 49.9527 146.805 48.267C147.676 46.572 148.912 45.2557 150.512 44.3182C152.122 43.3712 154.03 42.8977 156.236 42.8977C158.443 42.8977 160.346 43.3712 161.947 44.3182C163.557 45.2557 164.797 46.572 165.668 48.267C166.54 49.9527 166.975 51.9223 166.975 54.1761C166.975 56.411 166.54 58.3759 165.668 60.071C164.797 61.7566 163.557 63.0729 161.947 64.0199C160.346 64.9574 158.443 65.4261 156.236 65.4261ZM156.265 60.7386C157.269 60.7386 158.107 60.4545 158.779 59.8864C159.451 59.3087 159.958 58.5227 160.299 57.5284C160.649 56.5341 160.825 55.4025 160.825 54.1335C160.825 52.8646 160.649 51.733 160.299 50.7386C159.958 49.7443 159.451 48.9583 158.779 48.3807C158.107 47.803 157.269 47.5142 156.265 47.5142C155.252 47.5142 154.399 47.803 153.708 48.3807C153.026 48.9583 152.51 49.7443 152.16 50.7386C151.819 51.733 151.648 52.8646 151.648 54.1335C151.648 55.4025 151.819 56.5341 152.16 57.5284C152.51 58.5227 153.026 59.3087 153.708 59.8864C154.399 60.4545 155.252 60.7386 156.265 60.7386ZM173.787 65L167.849 43.1818H173.972L177.352 57.8409H177.551L181.074 43.1818H187.082L190.662 57.7557H190.847L194.17 43.1818H200.278L194.355 65H187.949L184.199 51.2784H183.929L180.179 65H173.787ZM207.825 56.2784V55.7955C207.835 54.1383 207.981 52.8172 208.266 51.8324C208.559 50.8475 208.985 50.0521 209.544 49.446C210.103 48.84 210.775 48.2907 211.561 47.7983C212.148 47.4195 212.674 47.0265 213.138 46.6193C213.602 46.2121 213.971 45.7623 214.246 45.2699C214.52 44.768 214.658 44.2093 214.658 43.5938C214.658 42.9403 214.501 42.3674 214.189 41.875C213.876 41.3826 213.455 41.0038 212.925 40.7386C212.404 40.4735 211.826 40.3409 211.192 40.3409C210.576 40.3409 209.994 40.4782 209.445 40.7528C208.895 41.018 208.445 41.4157 208.095 41.946C207.745 42.4669 207.555 43.1155 207.527 43.892H201.731C201.779 41.9981 202.233 40.4356 203.095 39.2045C203.957 37.964 205.098 37.0407 206.518 36.4347C207.939 35.8191 209.506 35.5114 211.22 35.5114C213.105 35.5114 214.771 35.8239 216.22 36.4489C217.669 37.0644 218.805 37.9593 219.629 39.1335C220.453 40.3078 220.865 41.7235 220.865 43.3807C220.865 44.4886 220.68 45.4735 220.311 46.3352C219.951 47.1875 219.445 47.9451 218.791 48.608C218.138 49.2614 217.366 49.8532 216.476 50.3835C215.728 50.8286 215.112 51.2926 214.629 51.7756C214.156 52.2585 213.801 52.8172 213.564 53.4517C213.337 54.0862 213.218 54.8674 213.209 55.7955V56.2784H207.825ZM210.638 65.3693C209.691 65.3693 208.881 65.0379 208.209 64.375C207.546 63.7027 207.219 62.8977 207.229 61.9602C207.219 61.0322 207.546 60.2367 208.209 59.5739C208.881 58.911 209.691 58.5795 210.638 58.5795C211.537 58.5795 212.328 58.911 213.01 59.5739C213.692 60.2367 214.037 61.0322 214.047 61.9602C214.037 62.5852 213.872 63.1581 213.55 63.679C213.237 64.1903 212.825 64.6023 212.314 64.9148C211.802 65.2178 211.244 65.3693 210.638 65.3693Z" fill="#4BB543"/>
<path d="M28.8827 54.7409C29.2665 45.3307 33.2097 35.9786 42.5618 29.5461C45.0627 27.8246 48.0637 26.7312 50.9601 25.696C65.186 20.6244 82.6688 30.4999 86.4492 48.4946C89.1594 61.3711 85.9606 72.7006 75.8176 81.3548C61.9988 93.1496 41.515 88.7876 32.9073 72.5262C30.2436 67.5012 28.8943 62.1272 28.8827 54.7409ZM32.9655 54.5664C32.9887 62.3831 34.8033 68.3038 38.5837 73.6079C46.6679 84.9607 61.3474 87.5197 72.2349 79.4588C87.054 68.4899 87.5309 44.4466 73.2004 32.838C64.3252 25.6494 50.7623 25.3703 41.957 34.164C35.9316 40.1777 33.0702 47.4593 32.9655 54.5664Z" fill="#4BB543"/>
<path d="M66.2677 67.4663C66.2445 68.7691 65.6978 70.5604 64.523 72.1191C62.499 74.8177 58.7651 75.2132 56.1828 73.0264C53.5889 70.828 52.67 66.6056 54.3799 63.6743C55.4849 61.7667 58.6488 59.3472 61.3009 60.2429C64.2205 61.2316 66.2677 63.6394 66.2677 67.4663ZM56.369 67.3965C56.369 68.3504 56.4504 69.0134 57.032 69.909C58.6954 72.4681 61.8243 72.2703 63.1504 69.5368C63.4877 68.8505 63.6738 68.0596 63.7901 67.2919C64.1507 64.8375 62.3245 62.5926 59.9516 62.4995C58.0905 62.4297 56.369 63.9884 56.369 67.3965Z" fill="#4BB543"/>
<path d="M68.536 43.5628C68.6639 42.702 69.2571 42.3647 69.7108 42.3182C70.1528 42.2716 70.874 42.3182 71.1299 43.272C72.0488 47.2036 72.2814 48.8204 72.2814 52.4379C72.2814 54.1013 71.316 54.6248 70.9787 54.6364C70.4901 54.648 69.9667 54.3921 69.3735 53.2987C68.6872 52.0425 68.0009 47.3199 68.536 43.5628Z" fill="#4BB543"/>
<path d="M44.0042 46.0401C44.1089 45.54 44.2601 44.8537 45.1441 44.7141C45.8769 44.6676 46.2724 45.4934 46.3771 45.9238C46.982 48.4596 47.4356 50.8674 47.1913 55.7063C47.1448 56.5903 46.9703 57.5441 45.8071 57.5907C44.6439 57.6372 44.4462 56.7066 44.2485 55.8226C43.7483 53.4962 43.4924 48.4014 44.0042 46.0401Z" fill="#4BB543"/>
<path d="M60.1253 4.96826C58.7075 2.29006 62.7768 1.88483 64.7365 2.02381C67.9614 2.25253 68.2663 5.21633 66.8337 7.62103C64.6116 11.351 63.1307 13.8974 64.8753 17.9683" stroke="#5A7729" stroke-width="3" stroke-linecap="round" stroke-linejoin="round"/>
<path d="M31.6253 11.9683C29.8877 10.5247 28.3708 7.82875 31.5976 6.96827C35.2039 6.00656 35.0122 10.0627 34.7087 12.4405C34.3539 15.2196 32.0259 22.2785 35.6253 23.7183" stroke="#5A7729" stroke-width="3" stroke-linecap="round" stroke-linejoin="round"/>
<path d="M4.87535 32.2183C3.01692 30.905 0.453553 28.3532 3.20868 26.2738C5.66852 24.4173 8.80736 25.1283 9.34757 28.1766C9.91524 31.3799 9.05697 34.4713 9.16702 37.6627C9.24362 39.8841 11.251 41.4514 12.3753 43.2183" stroke="#5A7729" stroke-width="3" stroke-linecap="round" stroke-linejoin="round"/>
<path d="M81.6254 25.2183C81.84 23.43 84.1481 22.1674 85.9031 22.9405C88.1977 23.9512 85.5471 27.1915 84.8754 28.2738C83.7484 30.0894 82.7056 32.1067 83.0004 34.2877C83.1609 35.4756 83.488 36.1461 82.8754 37.2183" stroke="#5A7729" stroke-width="3" stroke-linecap="round" stroke-linejoin="round"/>
</svg>
