<svg width="49" height="33" viewBox="0 0 49 33" fill="none" xmlns="http://www.w3.org/2000/svg">
<path d="M0.216875 21.744C0.216875 17.616 2.04088 12.96 5.68888 7.77599C9.33688 2.59199 12.0729 -8.58307e-06 13.8969 -8.58307e-06C15.6249 -8.58307e-06 16.4889 0.575993 16.4889 1.72799C16.4889 2.20799 16.0569 3.83999 15.1929 6.62399C14.4249 9.31199 14.0409 11.28 14.0409 12.528C14.0409 13.776 14.3769 14.592 15.0489 14.976C18.1209 17.088 19.6569 20.208 19.6569 24.336C19.6569 26.832 18.6969 28.848 16.7769 30.384C14.9529 31.92 12.5529 32.688 9.57688 32.688C3.33688 32.688 0.216875 29.04 0.216875 21.744ZM29.0169 21.744C29.0169 17.616 30.8409 12.96 34.4889 7.77599C38.1369 2.59199 40.8729 -8.58307e-06 42.6969 -8.58307e-06C44.4249 -8.58307e-06 45.2889 0.575993 45.2889 1.72799C45.2889 2.20799 44.8569 3.83999 43.9929 6.62399C43.2249 9.31199 42.8409 11.28 42.8409 12.528C42.8409 13.776 43.1769 14.592 43.8489 14.976C46.9209 17.088 48.4569 20.208 48.4569 24.336C48.4569 26.832 47.4969 28.848 45.5769 30.384C43.7529 31.92 41.3529 32.688 38.3769 32.688C32.1369 32.688 29.0169 29.04 29.0169 21.744Z" fill="#4BB543"/>
</svg>
