<svg width="160" height="74" viewBox="0 0 160 74" fill="none" xmlns="http://www.w3.org/2000/svg">
<path d="M9.0767 64.4545L0.752841 35.3636H7.47159L12.2869 55.5767H12.5284L17.8409 35.3636H23.5938L28.892 55.6193H29.1477L33.9631 35.3636H40.6818L32.358 64.4545H26.3636L20.8239 45.4346H20.5966L15.071 64.4545H9.0767ZM49.0312 51.8409V64.4545H42.9801V35.3636H48.8608V46.4858H49.1164C49.6089 45.1979 50.4043 44.1894 51.5028 43.4602C52.6013 42.7216 53.9791 42.3523 55.6363 42.3523C57.1515 42.3523 58.4725 42.6837 59.5994 43.3466C60.7358 44 61.6164 44.9422 62.2414 46.1733C62.8759 47.3949 63.1884 48.8579 63.1789 50.5625V64.4545H57.1278V51.642C57.1373 50.2973 56.7964 49.2509 56.1051 48.5028C55.4233 47.7547 54.4668 47.3807 53.2358 47.3807C52.4119 47.3807 51.6827 47.5559 51.0483 47.9062C50.4233 48.2566 49.9308 48.768 49.571 49.4403C49.2206 50.1032 49.0407 50.9034 49.0312 51.8409ZM73.2826 64.8665C71.8906 64.8665 70.65 64.625 69.561 64.142C68.472 63.6496 67.6103 62.9252 66.9758 61.9687C66.3508 61.0028 66.0383 59.8002 66.0383 58.3608C66.0383 57.1487 66.2608 56.1307 66.7059 55.3068C67.151 54.4829 67.757 53.8201 68.5241 53.3182C69.2911 52.8163 70.1623 52.4375 71.1377 52.1818C72.1226 51.9261 73.1548 51.7462 74.2343 51.642C75.5033 51.5095 76.526 51.3863 77.3025 51.2727C78.079 51.1496 78.6425 50.9697 78.9928 50.7329C79.3432 50.4962 79.5184 50.1458 79.5184 49.6818V49.5966C79.5184 48.697 79.2343 48.0009 78.6661 47.5085C78.1074 47.0161 77.312 46.7699 76.2798 46.7699C75.1908 46.7699 74.3243 47.0113 73.6803 47.4943C73.0364 47.9678 72.6103 48.5644 72.4019 49.2841L66.8053 48.8295C67.0894 47.5038 67.6481 46.3579 68.4815 45.392C69.3148 44.4166 70.3896 43.6685 71.7059 43.1477C73.0317 42.6174 74.5658 42.3523 76.3082 42.3523C77.5203 42.3523 78.6803 42.4943 79.7883 42.7784C80.9057 43.0625 81.8953 43.5028 82.757 44.0994C83.6283 44.696 84.3148 45.4631 84.8167 46.4006C85.3186 47.3286 85.5695 48.4413 85.5695 49.7386V64.4545H79.8309V61.429H79.6605C79.3101 62.1108 78.8413 62.7121 78.2542 63.2329C77.6671 63.7443 76.9616 64.1468 76.1377 64.4403C75.3139 64.7244 74.3622 64.8665 73.2826 64.8665ZM75.0156 60.6903C75.9057 60.6903 76.6917 60.5151 77.3735 60.1648C78.0553 59.8049 78.5904 59.322 78.9786 58.7159C79.3669 58.1098 79.561 57.4233 79.561 56.6562V54.3409C79.3716 54.464 79.1112 54.5776 78.7798 54.6818C78.4578 54.7765 78.0932 54.8665 77.686 54.9517C77.2788 55.0274 76.8716 55.0985 76.4644 55.1648C76.0572 55.2216 75.6879 55.2737 75.3565 55.321C74.6462 55.4252 74.026 55.5909 73.4957 55.8182C72.9654 56.0454 72.5534 56.3532 72.2599 56.7415C71.9663 57.1202 71.8195 57.5937 71.8195 58.1619C71.8195 58.9858 72.1178 59.6155 72.7144 60.0511C73.3205 60.4773 74.0875 60.6903 75.0156 60.6903ZM100.989 42.6363V47.1818H87.8501V42.6363H100.989ZM90.833 37.4091H96.8841V57.75C96.8841 58.3087 96.9694 58.7443 97.1398 59.0568C97.3103 59.3598 97.547 59.5729 97.8501 59.696C98.1626 59.8191 98.5224 59.8807 98.9296 59.8807C99.2137 59.8807 99.4978 59.857 99.7819 59.8096C100.066 59.7528 100.284 59.7102 100.435 59.6818L101.387 64.1846C101.084 64.2793 100.658 64.3882 100.109 64.5113C99.5593 64.6439 98.8917 64.7244 98.1057 64.7528C96.6474 64.8096 95.369 64.6155 94.2705 64.1704C93.1815 63.7254 92.334 63.0341 91.7279 62.0966C91.1218 61.1591 90.8235 59.9754 90.833 58.5454V37.4091Z" fill="#B3261E"/>
<path d="M121.755 47C120.657 45.6304 120 43.8919 120 42V38C120 30.9893 125.559 26.7801 130.312 25.771C131.899 25.434 132.802 24.818 133.253 24.3238C133.382 24.183 133.5 24.0259 133.602 23.8427C132.736 21.5945 130.55 20 128 20C124.686 20 122 22.6863 122 26C122 30.4183 118.418 34 114 34C109.582 34 106 30.4183 106 26V22C106 9.84974 115.85 0 128 0C140.15 0 150 9.84974 150 22V26C150 31.0714 148.263 35.6152 145.068 39.1135C142.398 42.0367 138.996 43.9272 135.431 44.9701C135.136 45.7072 134.734 46.3902 134.245 47C135.343 48.3696 136 50.1081 136 52V56C136 60.4183 132.418 64 128 64C123.582 64 120 60.4183 120 56V52C120 50.1081 120.657 48.3696 121.755 47Z" fill="white"/>
<path fill-rule="evenodd" clip-rule="evenodd" d="M137.791 23.9572C136.848 19.4141 132.823 16 128 16C122.477 16 118 20.4772 118 26C118 28.2091 116.209 30 114 30C111.791 30 110 28.2091 110 26V22C110 12.0589 118.059 4 128 4C137.941 4 146 12.0589 146 22V26C146 30.124 144.602 33.6915 142.114 36.4161C139.666 39.0968 136.357 40.7551 132.804 41.5094C132.479 41.5784 132.224 41.7401 132.087 41.8854C132.026 41.9501 132.005 41.9937 132 42.005C131.997 44.2118 130.207 46 128 46C125.791 46 124 44.2091 124 42V38C124 33.4114 127.66 30.4231 131.143 29.6838C133.387 29.2074 135.091 28.2432 136.207 27.0213C136.938 26.2204 137.504 25.2174 137.791 23.9572ZM132 52C132 49.7909 130.209 48 128 48C125.791 48 124 49.7909 124 52V56C124 58.2091 125.791 60 128 60C130.209 60 132 58.2091 132 56V52Z" fill="#B3261E"/>
<path d="M128 12C122.477 12 118 16.4772 118 22C118 24.2091 116.209 26 114 26C111.791 26 110 24.2091 110 22C110 12.0589 118.059 4 128 4C137.941 4 146 12.0589 146 22C146 26.124 144.602 29.6915 142.114 32.4161C139.666 35.0968 136.357 36.7551 132.804 37.5094C132.479 37.5784 132.224 37.7401 132.087 37.8854C132.026 37.9501 132.005 37.9937 132 38.005C131.997 40.2118 130.207 42 128 42C125.791 42 124 40.2091 124 38C124 33.4114 127.66 30.4231 131.143 29.6838C133.387 29.2074 135.091 28.2432 136.207 27.0213C137.283 25.8432 138 24.2278 138 22C138 16.4772 133.523 12 128 12Z" fill="url(#paint0_linear_518_188)"/>
<path d="M128 56C130.209 56 132 54.2091 132 52C132 49.7909 130.209 48 128 48C125.791 48 124 49.7909 124 52C124 54.2091 125.791 56 128 56Z" fill="url(#paint1_linear_518_188)"/>
<defs>
<linearGradient id="paint0_linear_518_188" x1="128" y1="4" x2="128" y2="56" gradientUnits="userSpaceOnUse">
<stop stop-color="#B3261E"/>
<stop offset="1" stop-color="white"/>
</linearGradient>
<linearGradient id="paint1_linear_518_188" x1="128" y1="4" x2="128" y2="56" gradientUnits="userSpaceOnUse">
<stop stop-color="#B3261E"/>
<stop offset="1" stop-color="white"/>
</linearGradient>
</defs>
</svg>
