<svg  fill="none" xmlns="http://www.w3.org/2000/svg">
<path d="M8.29032 4.14706C8.29032 6.43742 6.43447 8.29412 4.14516 8.29412C1.85585 8.29412 0 6.43742 0 4.14706C0 1.8567 1.85585 0 4.14516 0C6.43447 0 8.29032 1.8567 8.29032 4.14706Z" fill="#4BB543"/>
<path d="M33.1613 4.14706C33.1613 6.43742 31.3054 8.29412 29.0161 8.29412C26.7268 8.29412 24.871 6.43742 24.871 4.14706C24.871 1.8567 26.7268 0 29.0161 0C31.3054 0 33.1613 1.8567 33.1613 4.14706Z" fill="#4BB543"/>
<path d="M58.0323 4.14706C58.0323 6.43742 56.1764 8.29412 53.8871 8.29412C51.5978 8.29412 49.7419 6.43742 49.7419 4.14706C49.7419 1.8567 51.5978 0 53.8871 0C56.1764 0 58.0323 1.8567 58.0323 4.14706Z" fill="#4BB543"/>
<path d="M82.9032 4.14706C82.9032 6.43742 81.0474 8.29412 78.7581 8.29412C76.4688 8.29412 74.6129 6.43742 74.6129 4.14706C74.6129 1.8567 76.4688 0 78.7581 0C81.0474 0 82.9032 1.8567 82.9032 4.14706Z" fill="#4BB543"/>
<path d="M107.774 4.14706C107.774 6.43742 105.918 8.29412 103.629 8.29412C101.34 8.29412 99.4839 6.43742 99.4839 4.14706C99.4839 1.8567 101.34 0 103.629 0C105.918 0 107.774 1.8567 107.774 4.14706Z" fill="#4BB543"/>
<path d="M132.645 4.14706C132.645 6.43742 130.789 8.29412 128.5 8.29412C126.211 8.29412 124.355 6.43742 124.355 4.14706C124.355 1.8567 126.211 0 128.5 0C130.789 0 132.645 1.8567 132.645 4.14706Z" fill="#4BB543"/>
<path d="M157.516 4.14706C157.516 6.43742 155.66 8.29412 153.371 8.29412C151.082 8.29412 149.226 6.43742 149.226 4.14706C149.226 1.8567 151.082 0 153.371 0C155.66 0 157.516 1.8567 157.516 4.14706Z" fill="#4BB543"/>
<path d="M182.387 4.14706C182.387 6.43742 180.531 8.29412 178.242 8.29412C175.953 8.29412 174.097 6.43742 174.097 4.14706C174.097 1.8567 175.953 0 178.242 0C180.531 0 182.387 1.8567 182.387 4.14706Z" fill="#4BB543"/>
<path d="M207.258 4.14706C207.258 6.43742 205.402 8.29412 203.113 8.29412C200.824 8.29412 198.968 6.43742 198.968 4.14706C198.968 1.8567 200.824 0 203.113 0C205.402 0 207.258 1.8567 207.258 4.14706Z" fill="#4BB543"/>
<path d="M232.129 4.14706C232.129 6.43742 230.273 8.29412 227.984 8.29412C225.695 8.29412 223.839 6.43742 223.839 4.14706C223.839 1.8567 225.695 0 227.984 0C230.273 0 232.129 1.8567 232.129 4.14706Z" fill="#4BB543"/>
<path d="M257 4.14706C257 6.43742 255.144 8.29412 252.855 8.29412C250.566 8.29412 248.71 6.43742 248.71 4.14706C248.71 1.8567 250.566 0 252.855 0C255.144 0 257 1.8567 257 4.14706Z" fill="#4BB543"/>
<path d="M8.29032 29.0294C8.29032 31.3198 6.43447 33.1765 4.14516 33.1765C1.85585 33.1765 0 31.3198 0 29.0294C0 26.7391 1.85585 24.8824 4.14516 24.8824C6.43447 24.8824 8.29032 26.7391 8.29032 29.0294Z" fill="#4BB543"/>
<path d="M33.1613 29.0294C33.1613 31.3198 31.3054 33.1765 29.0161 33.1765C26.7268 33.1765 24.871 31.3198 24.871 29.0294C24.871 26.7391 26.7268 24.8824 29.0161 24.8824C31.3054 24.8824 33.1613 26.7391 33.1613 29.0294Z" fill="#4BB543"/>
<path d="M58.0323 29.0294C58.0323 31.3198 56.1764 33.1765 53.8871 33.1765C51.5978 33.1765 49.7419 31.3198 49.7419 29.0294C49.7419 26.7391 51.5978 24.8824 53.8871 24.8824C56.1764 24.8824 58.0323 26.7391 58.0323 29.0294Z" fill="#4BB543"/>
<path d="M82.9032 29.0294C82.9032 31.3198 81.0474 33.1765 78.7581 33.1765C76.4688 33.1765 74.6129 31.3198 74.6129 29.0294C74.6129 26.7391 76.4688 24.8824 78.7581 24.8824C81.0474 24.8824 82.9032 26.7391 82.9032 29.0294Z" fill="#4BB543"/>
<path d="M107.774 29.0294C107.774 31.3198 105.918 33.1765 103.629 33.1765C101.34 33.1765 99.4839 31.3198 99.4839 29.0294C99.4839 26.7391 101.34 24.8824 103.629 24.8824C105.918 24.8824 107.774 26.7391 107.774 29.0294Z" fill="#4BB543"/>
<path d="M132.645 29.0294C132.645 31.3198 130.789 33.1765 128.5 33.1765C126.211 33.1765 124.355 31.3198 124.355 29.0294C124.355 26.7391 126.211 24.8824 128.5 24.8824C130.789 24.8824 132.645 26.7391 132.645 29.0294Z" fill="#4BB543"/>
<path d="M157.516 29.0294C157.516 31.3198 155.66 33.1765 153.371 33.1765C151.082 33.1765 149.226 31.3198 149.226 29.0294C149.226 26.7391 151.082 24.8824 153.371 24.8824C155.66 24.8824 157.516 26.7391 157.516 29.0294Z" fill="#4BB543"/>
<path d="M182.387 29.0294C182.387 31.3198 180.531 33.1765 178.242 33.1765C175.953 33.1765 174.097 31.3198 174.097 29.0294C174.097 26.7391 175.953 24.8824 178.242 24.8824C180.531 24.8824 182.387 26.7391 182.387 29.0294Z" fill="#4BB543"/>
<path d="M207.258 29.0294C207.258 31.3198 205.402 33.1765 203.113 33.1765C200.824 33.1765 198.968 31.3198 198.968 29.0294C198.968 26.7391 200.824 24.8824 203.113 24.8824C205.402 24.8824 207.258 26.7391 207.258 29.0294Z" fill="#4BB543"/>
<path d="M232.129 29.0294C232.129 31.3198 230.273 33.1765 227.984 33.1765C225.695 33.1765 223.839 31.3198 223.839 29.0294C223.839 26.7391 225.695 24.8824 227.984 24.8824C230.273 24.8824 232.129 26.7391 232.129 29.0294Z" fill="#4BB543"/>
<path d="M257 29.0294C257 31.3198 255.144 33.1765 252.855 33.1765C250.566 33.1765 248.71 31.3198 248.71 29.0294C248.71 26.7391 250.566 24.8824 252.855 24.8824C255.144 24.8824 257 26.7391 257 29.0294Z" fill="#4BB543"/>
<path d="M8.29032 53.9118C8.29032 56.2021 6.43447 58.0588 4.14516 58.0588C1.85585 58.0588 0 56.2021 0 53.9118C0 51.6214 1.85585 49.7647 4.14516 49.7647C6.43447 49.7647 8.29032 51.6214 8.29032 53.9118Z" fill="#4BB543"/>
<path d="M33.1613 53.9118C33.1613 56.2021 31.3054 58.0588 29.0161 58.0588C26.7268 58.0588 24.871 56.2021 24.871 53.9118C24.871 51.6214 26.7268 49.7647 29.0161 49.7647C31.3054 49.7647 33.1613 51.6214 33.1613 53.9118Z" fill="#4BB543"/>
<path d="M58.0323 53.9118C58.0323 56.2021 56.1764 58.0588 53.8871 58.0588C51.5978 58.0588 49.7419 56.2021 49.7419 53.9118C49.7419 51.6214 51.5978 49.7647 53.8871 49.7647C56.1764 49.7647 58.0323 51.6214 58.0323 53.9118Z" fill="#4BB543"/>
<path d="M82.9032 53.9118C82.9032 56.2021 81.0474 58.0588 78.7581 58.0588C76.4688 58.0588 74.6129 56.2021 74.6129 53.9118C74.6129 51.6214 76.4688 49.7647 78.7581 49.7647C81.0474 49.7647 82.9032 51.6214 82.9032 53.9118Z" fill="#4BB543"/>
<path d="M107.774 53.9118C107.774 56.2021 105.918 58.0588 103.629 58.0588C101.34 58.0588 99.4839 56.2021 99.4839 53.9118C99.4839 51.6214 101.34 49.7647 103.629 49.7647C105.918 49.7647 107.774 51.6214 107.774 53.9118Z" fill="#4BB543"/>
<path d="M132.645 53.9118C132.645 56.2021 130.789 58.0588 128.5 58.0588C126.211 58.0588 124.355 56.2021 124.355 53.9118C124.355 51.6214 126.211 49.7647 128.5 49.7647C130.789 49.7647 132.645 51.6214 132.645 53.9118Z" fill="#4BB543"/>
<path d="M157.516 53.9118C157.516 56.2021 155.66 58.0588 153.371 58.0588C151.082 58.0588 149.226 56.2021 149.226 53.9118C149.226 51.6214 151.082 49.7647 153.371 49.7647C155.66 49.7647 157.516 51.6214 157.516 53.9118Z" fill="#4BB543"/>
<path d="M182.387 53.9118C182.387 56.2021 180.531 58.0588 178.242 58.0588C175.953 58.0588 174.097 56.2021 174.097 53.9118C174.097 51.6214 175.953 49.7647 178.242 49.7647C180.531 49.7647 182.387 51.6214 182.387 53.9118Z" fill="#4BB543"/>
<path d="M207.258 53.9118C207.258 56.2021 205.402 58.0588 203.113 58.0588C200.824 58.0588 198.968 56.2021 198.968 53.9118C198.968 51.6214 200.824 49.7647 203.113 49.7647C205.402 49.7647 207.258 51.6214 207.258 53.9118Z" fill="#4BB543"/>
<path d="M232.129 53.9118C232.129 56.2021 230.273 58.0588 227.984 58.0588C225.695 58.0588 223.839 56.2021 223.839 53.9118C223.839 51.6214 225.695 49.7647 227.984 49.7647C230.273 49.7647 232.129 51.6214 232.129 53.9118Z" fill="#4BB543"/>
<path d="M257 53.9118C257 56.2021 255.144 58.0588 252.855 58.0588C250.566 58.0588 248.71 56.2021 248.71 53.9118C248.71 51.6214 250.566 49.7647 252.855 49.7647C255.144 49.7647 257 51.6214 257 53.9118Z" fill="#4BB543"/>
<path d="M8.29032 78.7941C8.29032 81.0845 6.43447 82.9412 4.14516 82.9412C1.85585 82.9412 0 81.0845 0 78.7941C0 76.5038 1.85585 74.6471 4.14516 74.6471C6.43447 74.6471 8.29032 76.5038 8.29032 78.7941Z" fill="#4BB543"/>
<path d="M33.1613 78.7941C33.1613 81.0845 31.3054 82.9412 29.0161 82.9412C26.7268 82.9412 24.871 81.0845 24.871 78.7941C24.871 76.5038 26.7268 74.6471 29.0161 74.6471C31.3054 74.6471 33.1613 76.5038 33.1613 78.7941Z" fill="#4BB543"/>
<path d="M58.0323 78.7941C58.0323 81.0845 56.1764 82.9412 53.8871 82.9412C51.5978 82.9412 49.7419 81.0845 49.7419 78.7941C49.7419 76.5038 51.5978 74.6471 53.8871 74.6471C56.1764 74.6471 58.0323 76.5038 58.0323 78.7941Z" fill="#4BB543"/>
<path d="M82.9032 78.7941C82.9032 81.0845 81.0474 82.9412 78.7581 82.9412C76.4688 82.9412 74.6129 81.0845 74.6129 78.7941C74.6129 76.5038 76.4688 74.6471 78.7581 74.6471C81.0474 74.6471 82.9032 76.5038 82.9032 78.7941Z" fill="#4BB543"/>
<path d="M107.774 78.7941C107.774 81.0845 105.918 82.9412 103.629 82.9412C101.34 82.9412 99.4839 81.0845 99.4839 78.7941C99.4839 76.5038 101.34 74.6471 103.629 74.6471C105.918 74.6471 107.774 76.5038 107.774 78.7941Z" fill="#4BB543"/>
<path d="M132.645 78.7941C132.645 81.0845 130.789 82.9412 128.5 82.9412C126.211 82.9412 124.355 81.0845 124.355 78.7941C124.355 76.5038 126.211 74.6471 128.5 74.6471C130.789 74.6471 132.645 76.5038 132.645 78.7941Z" fill="#4BB543"/>
<path d="M157.516 78.7941C157.516 81.0845 155.66 82.9412 153.371 82.9412C151.082 82.9412 149.226 81.0845 149.226 78.7941C149.226 76.5038 151.082 74.6471 153.371 74.6471C155.66 74.6471 157.516 76.5038 157.516 78.7941Z" fill="#4BB543"/>
<path d="M182.387 78.7941C182.387 81.0845 180.531 82.9412 178.242 82.9412C175.953 82.9412 174.097 81.0845 174.097 78.7941C174.097 76.5038 175.953 74.6471 178.242 74.6471C180.531 74.6471 182.387 76.5038 182.387 78.7941Z" fill="#4BB543"/>
<path d="M207.258 78.7941C207.258 81.0845 205.402 82.9412 203.113 82.9412C200.824 82.9412 198.968 81.0845 198.968 78.7941C198.968 76.5038 200.824 74.6471 203.113 74.6471C205.402 74.6471 207.258 76.5038 207.258 78.7941Z" fill="#4BB543"/>
<path d="M232.129 78.7941C232.129 81.0845 230.273 82.9412 227.984 82.9412C225.695 82.9412 223.839 81.0845 223.839 78.7941C223.839 76.5038 225.695 74.6471 227.984 74.6471C230.273 74.6471 232.129 76.5038 232.129 78.7941Z" fill="#4BB543"/>
<path d="M257 78.7941C257 81.0845 255.144 82.9412 252.855 82.9412C250.566 82.9412 248.71 81.0845 248.71 78.7941C248.71 76.5038 250.566 74.6471 252.855 74.6471C255.144 74.6471 257 76.5038 257 78.7941Z" fill="#4BB543"/>
<path d="M8.29032 103.676C8.29032 105.967 6.43447 107.824 4.14516 107.824C1.85585 107.824 0 105.967 0 103.676C0 101.386 1.85585 99.5294 4.14516 99.5294C6.43447 99.5294 8.29032 101.386 8.29032 103.676Z" fill="#4BB543"/>
<path d="M33.1613 103.676C33.1613 105.967 31.3054 107.824 29.0161 107.824C26.7268 107.824 24.871 105.967 24.871 103.676C24.871 101.386 26.7268 99.5294 29.0161 99.5294C31.3054 99.5294 33.1613 101.386 33.1613 103.676Z" fill="#4BB543"/>
<path d="M58.0323 103.676C58.0323 105.967 56.1764 107.824 53.8871 107.824C51.5978 107.824 49.7419 105.967 49.7419 103.676C49.7419 101.386 51.5978 99.5294 53.8871 99.5294C56.1764 99.5294 58.0323 101.386 58.0323 103.676Z" fill="#4BB543"/>
<path d="M82.9032 103.676C82.9032 105.967 81.0474 107.824 78.7581 107.824C76.4688 107.824 74.6129 105.967 74.6129 103.676C74.6129 101.386 76.4688 99.5294 78.7581 99.5294C81.0474 99.5294 82.9032 101.386 82.9032 103.676Z" fill="#4BB543"/>
<path d="M107.774 103.676C107.774 105.967 105.918 107.824 103.629 107.824C101.34 107.824 99.4839 105.967 99.4839 103.676C99.4839 101.386 101.34 99.5294 103.629 99.5294C105.918 99.5294 107.774 101.386 107.774 103.676Z" fill="#4BB543"/>
<path d="M132.645 103.676C132.645 105.967 130.789 107.824 128.5 107.824C126.211 107.824 124.355 105.967 124.355 103.676C124.355 101.386 126.211 99.5294 128.5 99.5294C130.789 99.5294 132.645 101.386 132.645 103.676Z" fill="#4BB543"/>
<path d="M157.516 103.676C157.516 105.967 155.66 107.824 153.371 107.824C151.082 107.824 149.226 105.967 149.226 103.676C149.226 101.386 151.082 99.5294 153.371 99.5294C155.66 99.5294 157.516 101.386 157.516 103.676Z" fill="#4BB543"/>
<path d="M182.387 103.676C182.387 105.967 180.531 107.824 178.242 107.824C175.953 107.824 174.097 105.967 174.097 103.676C174.097 101.386 175.953 99.5294 178.242 99.5294C180.531 99.5294 182.387 101.386 182.387 103.676Z" fill="#4BB543"/>
<path d="M207.258 103.676C207.258 105.967 205.402 107.824 203.113 107.824C200.824 107.824 198.968 105.967 198.968 103.676C198.968 101.386 200.824 99.5294 203.113 99.5294C205.402 99.5294 207.258 101.386 207.258 103.676Z" fill="#4BB543"/>
<path d="M232.129 103.676C232.129 105.967 230.273 107.824 227.984 107.824C225.695 107.824 223.839 105.967 223.839 103.676C223.839 101.386 225.695 99.5294 227.984 99.5294C230.273 99.5294 232.129 101.386 232.129 103.676Z" fill="#4BB543"/>
<path d="M257 103.676C257 105.967 255.144 107.824 252.855 107.824C250.566 107.824 248.71 105.967 248.71 103.676C248.71 101.386 250.566 99.5294 252.855 99.5294C255.144 99.5294 257 101.386 257 103.676Z" fill="#4BB543"/>
<path d="M8.29032 128.559C8.29032 130.849 6.43447 132.706 4.14516 132.706C1.85585 132.706 0 130.849 0 128.559C0 126.268 1.85585 124.412 4.14516 124.412C6.43447 124.412 8.29032 126.268 8.29032 128.559Z" fill="#4BB543"/>
<path d="M33.1613 128.559C33.1613 130.849 31.3054 132.706 29.0161 132.706C26.7268 132.706 24.871 130.849 24.871 128.559C24.871 126.268 26.7268 124.412 29.0161 124.412C31.3054 124.412 33.1613 126.268 33.1613 128.559Z" fill="#4BB543"/>
<path d="M58.0323 128.559C58.0323 130.849 56.1764 132.706 53.8871 132.706C51.5978 132.706 49.7419 130.849 49.7419 128.559C49.7419 126.268 51.5978 124.412 53.8871 124.412C56.1764 124.412 58.0323 126.268 58.0323 128.559Z" fill="#4BB543"/>
<path d="M82.9032 128.559C82.9032 130.849 81.0474 132.706 78.7581 132.706C76.4688 132.706 74.6129 130.849 74.6129 128.559C74.6129 126.268 76.4688 124.412 78.7581 124.412C81.0474 124.412 82.9032 126.268 82.9032 128.559Z" fill="#4BB543"/>
<path d="M107.774 128.559C107.774 130.849 105.918 132.706 103.629 132.706C101.34 132.706 99.4839 130.849 99.4839 128.559C99.4839 126.268 101.34 124.412 103.629 124.412C105.918 124.412 107.774 126.268 107.774 128.559Z" fill="#4BB543"/>
<path d="M132.645 128.559C132.645 130.849 130.789 132.706 128.5 132.706C126.211 132.706 124.355 130.849 124.355 128.559C124.355 126.268 126.211 124.412 128.5 124.412C130.789 124.412 132.645 126.268 132.645 128.559Z" fill="#4BB543"/>
<path d="M157.516 128.559C157.516 130.849 155.66 132.706 153.371 132.706C151.082 132.706 149.226 130.849 149.226 128.559C149.226 126.268 151.082 124.412 153.371 124.412C155.66 124.412 157.516 126.268 157.516 128.559Z" fill="#4BB543"/>
<path d="M182.387 128.559C182.387 130.849 180.531 132.706 178.242 132.706C175.953 132.706 174.097 130.849 174.097 128.559C174.097 126.268 175.953 124.412 178.242 124.412C180.531 124.412 182.387 126.268 182.387 128.559Z" fill="#4BB543"/>
<path d="M207.258 128.559C207.258 130.849 205.402 132.706 203.113 132.706C200.824 132.706 198.968 130.849 198.968 128.559C198.968 126.268 200.824 124.412 203.113 124.412C205.402 124.412 207.258 126.268 207.258 128.559Z" fill="#4BB543"/>
<path d="M232.129 128.559C232.129 130.849 230.273 132.706 227.984 132.706C225.695 132.706 223.839 130.849 223.839 128.559C223.839 126.268 225.695 124.412 227.984 124.412C230.273 124.412 232.129 126.268 232.129 128.559Z" fill="#4BB543"/>
<path d="M257 128.559C257 130.849 255.144 132.706 252.855 132.706C250.566 132.706 248.71 130.849 248.71 128.559C248.71 126.268 250.566 124.412 252.855 124.412C255.144 124.412 257 126.268 257 128.559Z" fill="#4BB543"/>
<path d="M8.29032 153.441C8.29032 155.732 6.43447 157.588 4.14516 157.588C1.85585 157.588 0 155.732 0 153.441C0 151.151 1.85585 149.294 4.14516 149.294C6.43447 149.294 8.29032 151.151 8.29032 153.441Z" fill="#4BB543"/>
<path d="M33.1613 153.441C33.1613 155.732 31.3054 157.588 29.0161 157.588C26.7268 157.588 24.871 155.732 24.871 153.441C24.871 151.151 26.7268 149.294 29.0161 149.294C31.3054 149.294 33.1613 151.151 33.1613 153.441Z" fill="#4BB543"/>
<path d="M58.0323 153.441C58.0323 155.732 56.1764 157.588 53.8871 157.588C51.5978 157.588 49.7419 155.732 49.7419 153.441C49.7419 151.151 51.5978 149.294 53.8871 149.294C56.1764 149.294 58.0323 151.151 58.0323 153.441Z" fill="#4BB543"/>
<path d="M82.9032 153.441C82.9032 155.732 81.0474 157.588 78.7581 157.588C76.4688 157.588 74.6129 155.732 74.6129 153.441C74.6129 151.151 76.4688 149.294 78.7581 149.294C81.0474 149.294 82.9032 151.151 82.9032 153.441Z" fill="#4BB543"/>
<path d="M107.774 153.441C107.774 155.732 105.918 157.588 103.629 157.588C101.34 157.588 99.4839 155.732 99.4839 153.441C99.4839 151.151 101.34 149.294 103.629 149.294C105.918 149.294 107.774 151.151 107.774 153.441Z" fill="#4BB543"/>
<path d="M132.645 153.441C132.645 155.732 130.789 157.588 128.5 157.588C126.211 157.588 124.355 155.732 124.355 153.441C124.355 151.151 126.211 149.294 128.5 149.294C130.789 149.294 132.645 151.151 132.645 153.441Z" fill="#4BB543"/>
<path d="M157.516 153.441C157.516 155.732 155.66 157.588 153.371 157.588C151.082 157.588 149.226 155.732 149.226 153.441C149.226 151.151 151.082 149.294 153.371 149.294C155.66 149.294 157.516 151.151 157.516 153.441Z" fill="#4BB543"/>
<path d="M182.387 153.441C182.387 155.732 180.531 157.588 178.242 157.588C175.953 157.588 174.097 155.732 174.097 153.441C174.097 151.151 175.953 149.294 178.242 149.294C180.531 149.294 182.387 151.151 182.387 153.441Z" fill="#4BB543"/>
<path d="M207.258 153.441C207.258 155.732 205.402 157.588 203.113 157.588C200.824 157.588 198.968 155.732 198.968 153.441C198.968 151.151 200.824 149.294 203.113 149.294C205.402 149.294 207.258 151.151 207.258 153.441Z" fill="#4BB543"/>
<path d="M232.129 153.441C232.129 155.732 230.273 157.588 227.984 157.588C225.695 157.588 223.839 155.732 223.839 153.441C223.839 151.151 225.695 149.294 227.984 149.294C230.273 149.294 232.129 151.151 232.129 153.441Z" fill="#4BB543"/>
<path d="M257 153.441C257 155.732 255.144 157.588 252.855 157.588C250.566 157.588 248.71 155.732 248.71 153.441C248.71 151.151 250.566 149.294 252.855 149.294C255.144 149.294 257 151.151 257 153.441Z" fill="#4BB543"/>
<path d="M8.29032 178.324C8.29032 180.614 6.43447 182.471 4.14516 182.471C1.85585 182.471 0 180.614 0 178.324C0 176.033 1.85585 174.176 4.14516 174.176C6.43447 174.176 8.29032 176.033 8.29032 178.324Z" fill="#4BB543"/>
<path d="M33.1613 178.324C33.1613 180.614 31.3054 182.471 29.0161 182.471C26.7268 182.471 24.871 180.614 24.871 178.324C24.871 176.033 26.7268 174.176 29.0161 174.176C31.3054 174.176 33.1613 176.033 33.1613 178.324Z" fill="#4BB543"/>
<path d="M58.0323 178.324C58.0323 180.614 56.1764 182.471 53.8871 182.471C51.5978 182.471 49.7419 180.614 49.7419 178.324C49.7419 176.033 51.5978 174.176 53.8871 174.176C56.1764 174.176 58.0323 176.033 58.0323 178.324Z" fill="#4BB543"/>
<path d="M82.9032 178.324C82.9032 180.614 81.0474 182.471 78.7581 182.471C76.4688 182.471 74.6129 180.614 74.6129 178.324C74.6129 176.033 76.4688 174.176 78.7581 174.176C81.0474 174.176 82.9032 176.033 82.9032 178.324Z" fill="#4BB543"/>
<path d="M107.774 178.324C107.774 180.614 105.918 182.471 103.629 182.471C101.34 182.471 99.4839 180.614 99.4839 178.324C99.4839 176.033 101.34 174.176 103.629 174.176C105.918 174.176 107.774 176.033 107.774 178.324Z" fill="#4BB543"/>
<path d="M132.645 178.324C132.645 180.614 130.789 182.471 128.5 182.471C126.211 182.471 124.355 180.614 124.355 178.324C124.355 176.033 126.211 174.176 128.5 174.176C130.789 174.176 132.645 176.033 132.645 178.324Z" fill="#4BB543"/>
<path d="M157.516 178.324C157.516 180.614 155.66 182.471 153.371 182.471C151.082 182.471 149.226 180.614 149.226 178.324C149.226 176.033 151.082 174.176 153.371 174.176C155.66 174.176 157.516 176.033 157.516 178.324Z" fill="#4BB543"/>
<path d="M182.387 178.324C182.387 180.614 180.531 182.471 178.242 182.471C175.953 182.471 174.097 180.614 174.097 178.324C174.097 176.033 175.953 174.176 178.242 174.176C180.531 174.176 182.387 176.033 182.387 178.324Z" fill="#4BB543"/>
<path d="M207.258 178.324C207.258 180.614 205.402 182.471 203.113 182.471C200.824 182.471 198.968 180.614 198.968 178.324C198.968 176.033 200.824 174.176 203.113 174.176C205.402 174.176 207.258 176.033 207.258 178.324Z" fill="#4BB543"/>
<path d="M232.129 178.324C232.129 180.614 230.273 182.471 227.984 182.471C225.695 182.471 223.839 180.614 223.839 178.324C223.839 176.033 225.695 174.176 227.984 174.176C230.273 174.176 232.129 176.033 232.129 178.324Z" fill="#4BB543"/>
<path d="M257 178.324C257 180.614 255.144 182.471 252.855 182.471C250.566 182.471 248.71 180.614 248.71 178.324C248.71 176.033 250.566 174.176 252.855 174.176C255.144 174.176 257 176.033 257 178.324Z" fill="#4BB543"/>
<path d="M8.29032 203.206C8.29032 205.496 6.43447 207.353 4.14516 207.353C1.85585 207.353 0 205.496 0 203.206C0 200.916 1.85585 199.059 4.14516 199.059C6.43447 199.059 8.29032 200.916 8.29032 203.206Z" fill="#4BB543"/>
<path d="M33.1613 203.206C33.1613 205.496 31.3054 207.353 29.0161 207.353C26.7268 207.353 24.871 205.496 24.871 203.206C24.871 200.916 26.7268 199.059 29.0161 199.059C31.3054 199.059 33.1613 200.916 33.1613 203.206Z" fill="#4BB543"/>
<path d="M58.0323 203.206C58.0323 205.496 56.1764 207.353 53.8871 207.353C51.5978 207.353 49.7419 205.496 49.7419 203.206C49.7419 200.916 51.5978 199.059 53.8871 199.059C56.1764 199.059 58.0323 200.916 58.0323 203.206Z" fill="#4BB543"/>
<path d="M82.9032 203.206C82.9032 205.496 81.0474 207.353 78.7581 207.353C76.4688 207.353 74.6129 205.496 74.6129 203.206C74.6129 200.916 76.4688 199.059 78.7581 199.059C81.0474 199.059 82.9032 200.916 82.9032 203.206Z" fill="#4BB543"/>
<path d="M107.774 203.206C107.774 205.496 105.918 207.353 103.629 207.353C101.34 207.353 99.4839 205.496 99.4839 203.206C99.4839 200.916 101.34 199.059 103.629 199.059C105.918 199.059 107.774 200.916 107.774 203.206Z" fill="#4BB543"/>
<path d="M132.645 203.206C132.645 205.496 130.789 207.353 128.5 207.353C126.211 207.353 124.355 205.496 124.355 203.206C124.355 200.916 126.211 199.059 128.5 199.059C130.789 199.059 132.645 200.916 132.645 203.206Z" fill="#4BB543"/>
<path d="M157.516 203.206C157.516 205.496 155.66 207.353 153.371 207.353C151.082 207.353 149.226 205.496 149.226 203.206C149.226 200.916 151.082 199.059 153.371 199.059C155.66 199.059 157.516 200.916 157.516 203.206Z" fill="#4BB543"/>
<path d="M182.387 203.206C182.387 205.496 180.531 207.353 178.242 207.353C175.953 207.353 174.097 205.496 174.097 203.206C174.097 200.916 175.953 199.059 178.242 199.059C180.531 199.059 182.387 200.916 182.387 203.206Z" fill="#4BB543"/>
<path d="M207.258 203.206C207.258 205.496 205.402 207.353 203.113 207.353C200.824 207.353 198.968 205.496 198.968 203.206C198.968 200.916 200.824 199.059 203.113 199.059C205.402 199.059 207.258 200.916 207.258 203.206Z" fill="#4BB543"/>
<path d="M232.129 203.206C232.129 205.496 230.273 207.353 227.984 207.353C225.695 207.353 223.839 205.496 223.839 203.206C223.839 200.916 225.695 199.059 227.984 199.059C230.273 199.059 232.129 200.916 232.129 203.206Z" fill="#4BB543"/>
<path d="M257 203.206C257 205.496 255.144 207.353 252.855 207.353C250.566 207.353 248.71 205.496 248.71 203.206C248.71 200.916 250.566 199.059 252.855 199.059C255.144 199.059 257 200.916 257 203.206Z" fill="#4BB543"/>
<path d="M8.29032 228.088C8.29032 230.379 6.43447 232.235 4.14516 232.235C1.85585 232.235 0 230.379 0 228.088C0 225.798 1.85585 223.941 4.14516 223.941C6.43447 223.941 8.29032 225.798 8.29032 228.088Z" fill="#4BB543"/>
<path d="M33.1613 228.088C33.1613 230.379 31.3054 232.235 29.0161 232.235C26.7268 232.235 24.871 230.379 24.871 228.088C24.871 225.798 26.7268 223.941 29.0161 223.941C31.3054 223.941 33.1613 225.798 33.1613 228.088Z" fill="#4BB543"/>
<path d="M58.0323 228.088C58.0323 230.379 56.1764 232.235 53.8871 232.235C51.5978 232.235 49.7419 230.379 49.7419 228.088C49.7419 225.798 51.5978 223.941 53.8871 223.941C56.1764 223.941 58.0323 225.798 58.0323 228.088Z" fill="#4BB543"/>
<path d="M82.9032 228.088C82.9032 230.379 81.0474 232.235 78.7581 232.235C76.4688 232.235 74.6129 230.379 74.6129 228.088C74.6129 225.798 76.4688 223.941 78.7581 223.941C81.0474 223.941 82.9032 225.798 82.9032 228.088Z" fill="#4BB543"/>
<path d="M107.774 228.088C107.774 230.379 105.918 232.235 103.629 232.235C101.34 232.235 99.4839 230.379 99.4839 228.088C99.4839 225.798 101.34 223.941 103.629 223.941C105.918 223.941 107.774 225.798 107.774 228.088Z" fill="#4BB543"/>
<path d="M132.645 228.088C132.645 230.379 130.789 232.235 128.5 232.235C126.211 232.235 124.355 230.379 124.355 228.088C124.355 225.798 126.211 223.941 128.5 223.941C130.789 223.941 132.645 225.798 132.645 228.088Z" fill="#4BB543"/>
<path d="M157.516 228.088C157.516 230.379 155.66 232.235 153.371 232.235C151.082 232.235 149.226 230.379 149.226 228.088C149.226 225.798 151.082 223.941 153.371 223.941C155.66 223.941 157.516 225.798 157.516 228.088Z" fill="#4BB543"/>
<path d="M182.387 228.088C182.387 230.379 180.531 232.235 178.242 232.235C175.953 232.235 174.097 230.379 174.097 228.088C174.097 225.798 175.953 223.941 178.242 223.941C180.531 223.941 182.387 225.798 182.387 228.088Z" fill="#4BB543"/>
<path d="M207.258 228.088C207.258 230.379 205.402 232.235 203.113 232.235C200.824 232.235 198.968 230.379 198.968 228.088C198.968 225.798 200.824 223.941 203.113 223.941C205.402 223.941 207.258 225.798 207.258 228.088Z" fill="#4BB543"/>
<path d="M232.129 228.088C232.129 230.379 230.273 232.235 227.984 232.235C225.695 232.235 223.839 230.379 223.839 228.088C223.839 225.798 225.695 223.941 227.984 223.941C230.273 223.941 232.129 225.798 232.129 228.088Z" fill="#4BB543"/>
<path d="M257 228.088C257 230.379 255.144 232.235 252.855 232.235C250.566 232.235 248.71 230.379 248.71 228.088C248.71 225.798 250.566 223.941 252.855 223.941C255.144 223.941 257 225.798 257 228.088Z" fill="#4BB543"/>
<path d="M8.29032 252.971C8.29032 255.261 6.43447 257.118 4.14516 257.118C1.85585 257.118 0 255.261 0 252.971C0 250.68 1.85585 248.824 4.14516 248.824C6.43447 248.824 8.29032 250.68 8.29032 252.971Z" fill="#4BB543"/>
<path d="M33.1613 252.971C33.1613 255.261 31.3054 257.118 29.0161 257.118C26.7268 257.118 24.871 255.261 24.871 252.971C24.871 250.68 26.7268 248.824 29.0161 248.824C31.3054 248.824 33.1613 250.68 33.1613 252.971Z" fill="#4BB543"/>
<path d="M58.0323 252.971C58.0323 255.261 56.1764 257.118 53.8871 257.118C51.5978 257.118 49.7419 255.261 49.7419 252.971C49.7419 250.68 51.5978 248.824 53.8871 248.824C56.1764 248.824 58.0323 250.68 58.0323 252.971Z" fill="#4BB543"/>
<path d="M82.9032 252.971C82.9032 255.261 81.0474 257.118 78.7581 257.118C76.4688 257.118 74.6129 255.261 74.6129 252.971C74.6129 250.68 76.4688 248.824 78.7581 248.824C81.0474 248.824 82.9032 250.68 82.9032 252.971Z" fill="#4BB543"/>
<path d="M107.774 252.971C107.774 255.261 105.918 257.118 103.629 257.118C101.34 257.118 99.4839 255.261 99.4839 252.971C99.4839 250.68 101.34 248.824 103.629 248.824C105.918 248.824 107.774 250.68 107.774 252.971Z" fill="#4BB543"/>
<path d="M132.645 252.971C132.645 255.261 130.789 257.118 128.5 257.118C126.211 257.118 124.355 255.261 124.355 252.971C124.355 250.68 126.211 248.824 128.5 248.824C130.789 248.824 132.645 250.68 132.645 252.971Z" fill="#4BB543"/>
<path d="M157.516 252.971C157.516 255.261 155.66 257.118 153.371 257.118C151.082 257.118 149.226 255.261 149.226 252.971C149.226 250.68 151.082 248.824 153.371 248.824C155.66 248.824 157.516 250.68 157.516 252.971Z" fill="#4BB543"/>
<path d="M182.387 252.971C182.387 255.261 180.531 257.118 178.242 257.118C175.953 257.118 174.097 255.261 174.097 252.971C174.097 250.68 175.953 248.824 178.242 248.824C180.531 248.824 182.387 250.68 182.387 252.971Z" fill="#4BB543"/>
<path d="M207.258 252.971C207.258 255.261 205.402 257.118 203.113 257.118C200.824 257.118 198.968 255.261 198.968 252.971C198.968 250.68 200.824 248.824 203.113 248.824C205.402 248.824 207.258 250.68 207.258 252.971Z" fill="#4BB543"/>
<path d="M232.129 252.971C232.129 255.261 230.273 257.118 227.984 257.118C225.695 257.118 223.839 255.261 223.839 252.971C223.839 250.68 225.695 248.824 227.984 248.824C230.273 248.824 232.129 250.68 232.129 252.971Z" fill="#4BB543"/>
<path d="M257 252.971C257 255.261 255.144 257.118 252.855 257.118C250.566 257.118 248.71 255.261 248.71 252.971C248.71 250.68 250.566 248.824 252.855 248.824C255.144 248.824 257 250.68 257 252.971Z" fill="#4BB543"/>
<path d="M8.29032 277.853C8.29032 280.143 6.43447 282 4.14516 282C1.85585 282 0 280.143 0 277.853C0 275.563 1.85585 273.706 4.14516 273.706C6.43447 273.706 8.29032 275.563 8.29032 277.853Z" fill="#4BB543"/>
<path d="M33.1613 277.853C33.1613 280.143 31.3054 282 29.0161 282C26.7268 282 24.871 280.143 24.871 277.853C24.871 275.563 26.7268 273.706 29.0161 273.706C31.3054 273.706 33.1613 275.563 33.1613 277.853Z" fill="#4BB543"/>
<path d="M58.0323 277.853C58.0323 280.143 56.1764 282 53.8871 282C51.5978 282 49.7419 280.143 49.7419 277.853C49.7419 275.563 51.5978 273.706 53.8871 273.706C56.1764 273.706 58.0323 275.563 58.0323 277.853Z" fill="#4BB543"/>
<path d="M82.9032 277.853C82.9032 280.143 81.0474 282 78.7581 282C76.4688 282 74.6129 280.143 74.6129 277.853C74.6129 275.563 76.4688 273.706 78.7581 273.706C81.0474 273.706 82.9032 275.563 82.9032 277.853Z" fill="#4BB543"/>
<path d="M107.774 277.853C107.774 280.143 105.918 282 103.629 282C101.34 282 99.4839 280.143 99.4839 277.853C99.4839 275.563 101.34 273.706 103.629 273.706C105.918 273.706 107.774 275.563 107.774 277.853Z" fill="#4BB543"/>
<path d="M132.645 277.853C132.645 280.143 130.789 282 128.5 282C126.211 282 124.355 280.143 124.355 277.853C124.355 275.563 126.211 273.706 128.5 273.706C130.789 273.706 132.645 275.563 132.645 277.853Z" fill="#4BB543"/>
<path d="M157.516 277.853C157.516 280.143 155.66 282 153.371 282C151.082 282 149.226 280.143 149.226 277.853C149.226 275.563 151.082 273.706 153.371 273.706C155.66 273.706 157.516 275.563 157.516 277.853Z" fill="#4BB543"/>
<path d="M182.387 277.853C182.387 280.143 180.531 282 178.242 282C175.953 282 174.097 280.143 174.097 277.853C174.097 275.563 175.953 273.706 178.242 273.706C180.531 273.706 182.387 275.563 182.387 277.853Z" fill="#4BB543"/>
<path d="M207.258 277.853C207.258 280.143 205.402 282 203.113 282C200.824 282 198.968 280.143 198.968 277.853C198.968 275.563 200.824 273.706 203.113 273.706C205.402 273.706 207.258 275.563 207.258 277.853Z" fill="#4BB543"/>
<path d="M232.129 277.853C232.129 280.143 230.273 282 227.984 282C225.695 282 223.839 280.143 223.839 277.853C223.839 275.563 225.695 273.706 227.984 273.706C230.273 273.706 232.129 275.563 232.129 277.853Z" fill="#4BB543"/>
<path d="M257 277.853C257 280.143 255.144 282 252.855 282C250.566 282 248.71 280.143 248.71 277.853C248.71 275.563 250.566 273.706 252.855 273.706C255.144 273.706 257 275.563 257 277.853Z" fill="#4BB543"/>
</svg>
