<svg width="224" height="40" viewBox="0 0 224 40" fill="none" xmlns="http://www.w3.org/2000/svg">
<path fill-rule="evenodd" clip-rule="evenodd" d="M30.362 0.441996L29.483 0L28.604 0.441996L1.08693 14.2787C0.116018 14.7669 -0.277524 15.9542 0.207934 16.9307C0.693392 17.9071 1.87402 18.3029 2.84493 17.8146L29.483 4.41997L56.121 17.8146L57 18.2566L57.879 17.8146L84.517 4.41997L111.155 17.8146C112.126 18.3029 113.307 17.9071 113.792 16.9307C114.278 15.9542 113.884 14.7669 112.913 14.2787L85.396 0.441996L84.517 0L83.638 0.441996L57 13.8367L30.362 0.441996ZM30.362 22.1854L29.483 21.7434L28.604 22.1854L1.08693 36.022C0.116018 36.5102 -0.277524 37.6976 0.207934 38.674C0.693392 39.6504 1.87402 40.0462 2.84493 39.558L29.483 26.1633L56.121 39.558L57 40L57.879 39.558L84.517 26.1633L111.155 39.558C112.126 40.0462 113.307 39.6504 113.792 38.674C114.278 37.6976 113.884 36.5102 112.913 36.022L85.396 22.1854L84.517 21.7434L83.638 22.1854L57 35.58L30.362 22.1854Z" fill="#4BB543"/>
<path fill-rule="evenodd" clip-rule="evenodd" d="M140.362 0.441996L139.483 0L138.604 0.441996L111.087 14.2787C110.116 14.7669 109.722 15.9542 110.208 16.9307C110.693 17.9071 111.874 18.3029 112.845 17.8146L139.483 4.41997L166.121 17.8146L167 18.2566L167.879 17.8146L194.517 4.41997L221.155 17.8146C222.126 18.3029 223.307 17.9071 223.792 16.9307C224.278 15.9542 223.884 14.7669 222.913 14.2787L195.396 0.441996L194.517 0L193.638 0.441996L167 13.8367L140.362 0.441996ZM140.362 22.1854L139.483 21.7434L138.604 22.1854L111.087 36.022C110.116 36.5102 109.722 37.6976 110.208 38.674C110.693 39.6504 111.874 40.0462 112.845 39.558L139.483 26.1633L166.121 39.558L167 40L167.879 39.558L194.517 26.1633L221.155 39.558C222.126 40.0462 223.307 39.6504 223.792 38.674C224.278 37.6976 223.884 36.5102 222.913 36.022L195.396 22.1854L194.517 21.7434L193.638 22.1854L167 35.58L140.362 22.1854Z" fill="#4BB543"/>
</svg>
